<?xml version="1.0" encoding="utf-8"?>

<svg version="1.1" xmlns="http://www.w3.org/2000/svg" xmlns:xlink="http://www.w3.org/1999/xlink" style="color:#8FD300" x="0px" y="0px" viewBox="0 0 1000 1000" enable-background="new 0 0 1000 1000" xml:space="preserve">
<metadata> Svg Vector Icons : http://www.onlinewebfonts.com/icon </metadata>
<g><g transform="translate(0.000000,511.000000) scale(0.100000,-0.100000)"><path d="M2575.5,4976.8c-175.4-64-346-234.6-410-410c-23.7-68.7-30.8-274.9-33.2-829.5v-741.8h201.5h201.4v744.2c0,696.8,2.4,746.6,45,798.7l45,56.9l3021.8,7.1l3019.4,4.7l64-49.8l61.6-47.4V113.6c0-4320.5,0-4394-45-4439c-26.1-26.1-82.9-54.5-125.6-61.6c-42.6-7.1-1405.4-9.5-3024.1-7.1l-2948.3,7.1l-56.9,66.3l-56.9,66.4v746.5v744.2h-201.4h-201.5v-737.1c0-481.1,9.5-770.3,26.1-827.1c42.7-139.8,184.9-308.1,329.4-388.7l130.4-73.5h3045.5h3045.5l118.5,64c146.9,78.2,256,189.6,317.6,327.1c47.4,106.6,49.8,132.7,49.8,4512.5c0,4372.7,0,4408.2-47.4,4505.4c-66.3,135.1-201.4,267.8-343.7,334.2l-118.5,56.9l-3009.9-2.4C3222.5,5007.6,2648.9,5002.9,2575.5,4976.8z"/><path d="M4134.9,2071.2L3992.7,1929l734.7-734.7l734.7-734.7H3132.4H805.1V258.1V56.7h2327.4h2329.7L4727.5-678l-734.7-734.7l142.2-142.2l142.2-142.2L5256-718.3l976.4,976.5l-978.8,978.8l-976.4,976.5L4134.9,2071.2z"/></g></g>
</svg>